<svg version="1.1" id="Layer_1" xmlns="http://www.w3.org/2000/svg" x="0" y="0" viewBox="0 0 105.3 106.8" xml:space="preserve"><style>.st0{fill-rule:evenodd;clip-rule:evenodd;fill:#dd2e14}</style><path class="st0" d="M42.7 55.2V1.6h8v53.6h-8z"/><path class="st0" d="M2.3 47.2h48.4v8H2.3v-8z"/><path class="st0" d="M2.3 43.5L52.6 8.3l4.5 6.5L2.3 53.2v-9.7zm100.3 3.7H55.9v8h46.7v-8z"/><path class="st0" d="M102.6 43.5L52.3 8.3l-4.5 6.5 54.8 38.4v-9.7zM55.9 55.2V40.8h8v14.4h-8z"/><path class="st0" d="M55.9 33.1h14.4v8H55.9v-8z"/><path d="M16.6 87.7h-5.7v14.4H2.7V66.4h8.2v14.4h5.9l9.4-14.4h8.7L23.2 83.6l12 18.5h-9.4l-9.2-14.4zm39.3 15c-3.6 0-6.9-.8-9.9-2.4-2.9-1.6-5.3-3.8-6.9-6.6-1.7-2.8-2.5-6-2.5-9.5s.8-6.7 2.5-9.5 4-5 6.9-6.6c2.9-1.6 6.3-2.4 9.9-2.4 3.1 0 5.9.5 8.4 1.6s4.6 2.7 6.3 4.7l-5.3 5c-2.4-2.8-5.4-4.2-9-4.2-2.2 0-4.2.5-5.9 1.5-1.7 1-3.1 2.3-4.1 4.1-1 1.7-1.5 3.7-1.5 5.9s.5 4.2 1.5 5.9c1 1.7 2.3 3.1 4.1 4.1 1.7 1 3.7 1.5 5.9 1.5 3.6 0 6.6-1.4 9-4.2l5.3 4.9c-1.7 2.1-3.8 3.7-6.3 4.7s-5.3 1.5-8.4 1.5zM103 73.1H91.6v29h-8.2v-29H72v-6.7h31v6.7z" fill="#dd2e14"/></svg>