<?xml version="1.0" encoding="utf-8"?><svg viewBox="0 0 595.3 630" xmlns="http://www.w3.org/2000/svg" xmlns:xlink="http://www.w3.org/1999/xlink"><style>:root>svg{display:none}:root>svg:target{display:block}</style><svg viewBox="0 114.4 595.3 614" id="clock" xmlns="http://www.w3.org/2000/svg"><path d="M567.8 158.2h-115v-17.3c0-9.7-7.9-17.5-17.5-17.5-9.7 0-17.5 7.9-17.5 17.5v17.3H315.2v-17.3c0-9.7-7.9-17.5-17.5-17.5-9.7 0-17.5 7.9-17.5 17.5v17.3H182v-17.3c0-9.7-7.9-17.5-17.5-17.5-9.7 0-17.5 7.9-17.5 17.5v17.3H27.5c-9.7 0-17.5 7.9-17.5 17.5v396.5c0 9.7 7.9 17.5 17.5 17.5h107.7c17.3 73.7 83.5 128.8 162.4 128.8S442.8 663.4 460 589.7h107.7c9.7 0 17.5-7.9 17.5-17.5V175.7c.1-9.7-7.7-17.5-17.4-17.5zm-421 35.1v15.9c0 9.7 7.9 17.5 17.5 17.5 9.7 0 17.5-7.9 17.5-17.5v-15.9H280v15.9c0 9.7 7.9 17.5 17.5 17.5 9.7 0 17.5-7.9 17.5-17.5v-15.9h102.5v15.9c0 9.7 7.9 17.5 17.5 17.5 9.7 0 17.5-7.9 17.5-17.5v-15.9h97.4V265H45.1v-71.8h101.7zm150.8 490.2c-72.7 0-131.8-59.1-131.8-131.8S225 420 297.6 420c72.7 0 131.8 59.1 131.8 131.8 0 72.6-59.1 131.7-131.8 131.7zm166.8-128.8c0-1 .1-1.9.1-2.9 0-92-74.9-166.9-166.9-166.9s-166.9 74.9-166.9 166.9c0 1 .1 1.9.1 2.9H45V300.1h505.2v254.5h-85.8v.1z"/><path d="M315.2 556.2v-84.9c0-9.7-7.9-17.5-17.5-17.5-9.7 0-17.5 7.9-17.5 17.5v92.2c0 4.7 1.8 9.1 5.1 12.4l40.3 40.3c3.4 3.4 7.9 5.1 12.4 5.1s9-1.7 12.4-5.1c6.9-6.9 6.9-18 0-24.8l-35.2-35.2z"/></svg><svg viewBox="0 148.4 595.3 555" id="hand" xmlns="http://www.w3.org/2000/svg"><path d="M583.4 295.9L462.2 174.7c-7.7-7.7-17.9-11.9-28.7-11.9s-21 4.2-28.7 11.9l-28.5 28.5c-4.4 4.4-7.5 9.5-9.5 15l-133.2-23.9c-59.9-11.9-118.4 27.1-130.5 87L97 311.8c-6.8 33.7 15.1 66.6 48.7 73.4 33.7 6.8 66.6-15.1 73.4-48.7l3.8-18.6 59.7 5.2 156 156 28.3 28.3c5.7 5.7 5.7 15 0 20.8-5.7 5.7-15 5.7-20.8 0l-75.7-75.7c-5.3-5.3-13.8-5.3-19.1 0-5.3 5.3-5.3 13.8 0 19.1l75.7 75.8c2.8 2.8 4.3 6.5 4.3 10.4 0 3.9-1.5 7.6-4.3 10.4-5.7 5.7-15 5.7-20.8 0l-75.7-75.7c-5.3-5.3-13.8-5.3-19.1 0-5.3 5.3-5.3 13.8 0 19.1l75.7 75.8c5.7 5.7 5.7 15 0 20.8a14.6 14.6 0 01-10.4 4.3c-3.9 0-7.6-1.5-10.4-4.3l-75.7-75.7c-5.3-5.3-13.8-5.3-19.1 0-5.3 5.3-5.3 13.8 0 19.1l75.7 75.8c5.7 5.7 5.7 15 0 20.8-5.7 5.7-15 5.7-20.8 0l-268-268L23 344.8c-5.3-5.3-13.8-5.3-19.1 0-5.3 5.3-5.3 13.8 0 19.1l35.4 35.4 38.5 38.5L56.6 459c-7 7-10.8 16.2-10.8 26s3.8 19.1 10.8 26l6.9 6.9c6.1 6.1 13.9 9.8 22.3 10.6.8 8.4 4.5 16.3 10.6 22.3l6.9 6.9c6.2 6.2 14.2 9.8 22.3 10.6.8 8.5 4.5 16.3 10.6 22.4l6.9 6.9c6.1 6.1 13.9 9.8 22.3 10.6.8 8.4 4.5 16.3 10.6 22.3l6.9 6.9c7.2 7.2 16.6 10.8 26 10.8 9.4 0 18.9-3.6 26-10.8l21.2-21.2 50.9 50.9c7.9 7.9 18.4 12.2 29.5 12.2 11.1 0 21.6-4.3 29.5-12.2 7.5-7.5 11.7-17.3 12.1-27.7 10.5-.4 20.3-4.7 27.7-12.1 7.7-7.7 11.7-17.7 12.1-27.8 10.1-.4 20.1-4.4 27.8-12.1 7.7-7.7 11.7-17.7 12.1-27.8 10.1-.4 20.1-4.4 27.8-12.1 16.3-16.3 16.3-42.7 0-59l-18.7-18.7 68.5-68.5 47.6-47.6c16.2-16.2 16.2-42 .4-57.8zM75.7 491.5c-3.8-3.8-3.8-10 0-13.8l19.9-19.9 20.8 20.8-19.9 19.9c-3.8 3.8-10 3.8-13.8 0l-7-7zm39.9 39.9c-3.8-3.8-3.8-10 0-13.8l19.9-19.9 20.8 20.8-19.9 19.9c-3.8 3.8-10 3.8-13.8 0l-7-7zm39.9 39.9c-1.8-1.8-2.9-4.3-2.9-6.9 0-2.6 1-5.1 2.9-6.9l19.9-19.9 20.8 20.8-19.9 19.9c-3.8 3.8-10 3.8-13.8 0l-7-7zm60.6 46.8c-3.8 3.8-10 3.8-13.8 0l-6.9-6.9c-3.8-3.8-3.8-10 0-13.8l19.9-19.9 20.8 20.8-20 19.8zm232-167.7l-150-150c-2.2-2.2-5.2-3.6-8.4-3.9l-76.7-6.7c-.4 0-.8-.1-1.2-.1-6.4 0-12 4.5-13.2 10.8l-6.1 30.5c-3.8 19.1-22.5 31.4-41.5 27.6-9.2-1.9-17.2-7.2-22.4-15-5.2-7.8-7.1-17.2-5.2-26.5l6.1-30.5c9.2-45.4 53.5-74.9 99-65.8.1 0 .2 0 .3.1l131.3 23.5 16.2 16.2 130.8 130.8-59 59zm116.2-116.2l-38.1 38.1-130.8-130.8c-2.6-2.6-4-6-4-9.6 0-3.6 1.4-7 4-9.6l28.5-28.5c2.6-2.6 6-4 9.6-4 3.6 0 7 1.4 9.6 4L564.3 315c2.6 2.6 4 6 4 9.6 0 3.7-1.4 7.1-4 9.6z"/><path d="M531.6 316.5c7.5 0 13.5 6 13.5 13.5s-6 13.5-13.5 13.5-13.5-6-13.5-13.5 6-13.5 13.5-13.5z"/></svg><svg viewBox="0 129.4 595.3 598" id="name" xmlns="http://www.w3.org/2000/svg"><path d="M296.7 455.6c88 0 159.3-71.4 159.3-159.3 0-88-71.4-158.8-159.3-158.8-88 0-159.3 71.4-159.3 158.8-.1 87.5 71.3 159.3 159.3 159.3zm0-276.6c64.5 0 117.3 52.8 117.3 117.3s-52.8 117.3-117.3 117.3-117.3-52.8-117.3-117.3S232.1 179 296.7 179zM21 704.4h553.2c11.7 0 21-9.3 21-21 0-110-89.4-199.9-199.9-199.9H199.9C89.9 483.5 0 572.9 0 683.4c0 11.7 9.3 21 21 21zm178.9-178.9h195.5c80.2 0 146.1 59.6 156.4 136.8H43.5c10.3-76.7 76.2-136.8 156.4-136.8z"/></svg><svg viewBox="0 106.4 595.3 630" id="phone" xmlns="http://www.w3.org/2000/svg"><path d="M121.3 519c58.7 70.2 129.4 125.4 210.1 164.5 30.7 14.6 71.8 31.8 117.6 34.8 2.8.1 5.6.2 8.4.2 30.7 0 55.4-10.6 75.5-32.4.1-.1.4-.4.5-.6 7.2-8.6 15.3-16.4 23.8-24.7 5.8-5.6 11.7-11.3 17.4-17.3 26.3-27.4 26.3-62.2-.2-88.7l-74.1-74.1c-12.6-13.1-27.6-20-43.4-20-15.8 0-31 6.9-43.9 19.9l-44.2 44.2c-4.1-2.3-8.3-4.4-12.2-6.4-4.9-2.5-9.5-4.8-13.6-7.4-40.2-25.5-76.7-58.8-111.6-101.6-17.6-22.3-29.5-41.1-37.7-60.2 11.6-10.5 22.5-21.5 32.9-32.2 3.7-3.8 7.5-7.6 11.3-11.5 13.3-13.3 20.5-28.7 20.5-44.4s-7-31.1-20.5-44.4L201 179.9c-4.3-4.3-8.4-8.5-12.6-12.8-8.1-8.4-16.7-17-25-24.8-12.7-12.5-27.6-19-43.4-19-15.7 0-30.7 6.5-43.9 19.1L30 188.5c-16.8 16.8-26.3 37.1-28.2 60.7-2.3 29.5 3.1 60.8 17.1 98.7 21.5 58.6 54 113 102.4 171.1zM31.7 251.8c1.5-16.4 7.8-30.1 19.6-41.9L97.2 164c7.2-6.9 15-10.5 22.7-10.5 7.5 0 15.2 3.6 22.2 10.7 8.3 7.6 16 15.7 24.4 24.2 4.2 4.3 8.5 8.6 12.8 13.1l36.8 36.8c7.6 7.6 11.6 15.4 11.6 23.1 0 7.6-3.9 15.4-11.6 23.1-3.8 3.8-7.6 7.8-11.5 11.6-11.5 11.6-22.2 22.6-34 33.1l-.6.6c-10.2 10.2-8.6 20-6.2 27.4.1.4.2.6.4 1 9.5 22.8 22.7 44.5 43.3 70.4 37 45.6 76 81 118.9 108.3 5.3 3.5 11 6.2 16.3 8.9 4.9 2.5 9.5 4.8 13.6 7.4.5.2.9.5 1.4.7 4.1 2.1 8 3.1 12 3.1 9.9 0 16.3-6.3 18.4-8.4l46.1-46.1c7.2-7.2 14.9-11 22.6-11 9.4 0 17 5.8 21.8 11l74.4 74.3c14.8 14.8 14.7 30.8-.4 46.5-5.2 5.6-10.6 10.9-16.4 16.4-8.6 8.4-17.6 17-25.8 26.8-14.2 15.3-31.1 22.5-52.9 22.5-2.1 0-4.3-.1-6.4-.2-40.5-2.6-78.1-18.4-106.3-31.8-76.8-37.5-144.2-90.1-200.1-157-46-55.4-77-106.9-97.4-162.2-12.7-33.9-17.5-61.2-15.6-86z"/></svg><svg viewBox="0 104.4 595.3 625" id="surely" xmlns="http://www.w3.org/2000/svg"><path d="M570 191.1l-141.5-66.3c-3.8-1.8-8.1-2-12.1-.5-3.9 1.4-7.1 4.4-8.9 8.1L298.3 365.6h-1.2L187.7 132.4c-1.8-3.8-5-6.7-8.9-8.1-3.9-1.4-8.3-1.2-12.1.5L25.3 191.1c-7.9 3.7-11.3 13.1-7.6 21l113.9 243c-10.1 4.7-17.8 13.6-20.9 25.1-4.7 17.4 2.8 35.1 18.6 43.8 3.2 1.8 3.7 4.7 3.7 6.2 0 1.6-.5 4.5-3.7 6.2-15.8 8.8-23.3 26.4-18.6 43.8 4.7 17.4 20 29 38 28.7 3.7 0 5.5 2.2 6.3 3.6.8 1.4 1.8 4.1-.1 7.3-9.3 15.5-6.9 34.5 5.8 47.3 12.8 12.8 31.8 15.1 47.3 5.8 3.1-1.9 5.9-.8 7.3-.1 1.4.8 3.6 2.7 3.6 6.3-.3 18.1 11.2 33.3 28.7 38 3.5.9 6.9 1.4 10.4 1.4 13.7 0 26.5-7.3 33.5-20 1.8-3.2 4.7-3.7 6.2-3.7s4.5.5 6.2 3.7c8.8 15.8 26.4 23.3 43.8 18.6 17.4-4.7 29-20 28.7-38-.1-3.7 2.2-5.5 3.6-6.3 1.4-.8 4.1-1.8 7.3.1 15.5 9.3 34.5 6.9 47.3-5.8 12.8-12.8 15.1-31.8 5.8-47.3-1.9-3.1-.8-5.9-.1-7.3.8-1.4 2.7-3.6 6.3-3.6 18.1.3 33.3-11.2 38-28.7 4.7-17.4-2.8-35.1-18.6-43.8-3.2-1.8-3.7-4.7-3.7-6.2 0-1.6.5-4.5 3.7-6.2 15.8-8.8 23.3-26.4 18.6-43.8-3.1-11.5-10.8-20.4-20.9-25.1l113.9-243c3.7-7.9.3-17.3-7.6-21zM454.1 488.4c.5 2 .8 5.7-3.4 8.1-12.5 6.9-19.9 19.6-19.9 33.8 0 14.3 7.4 26.9 19.9 33.8 4.2 2.4 4 6.1 3.4 8.1-.5 2-2.1 5.3-6.9 5.3h-.2c-14.2-.3-27 7-34.1 19.3-7.1 12.3-7 27 .3 39.2 2.5 4.2.4 7.3-1.1 8.7-1.5 1.5-4.6 3.6-8.7 1.1-12.2-7.3-26.9-7.5-39.2-.3-12.3 7.1-19.6 19.9-19.3 34.2.1 4.9-3.3 6.5-5.3 7s-5.7.8-8.1-3.4c-6.9-12.5-19.6-19.9-33.8-19.9s-26.9 7.4-33.8 19.9c-2.4 4.2-6.1 4-8.1 3.4-2-.5-5.4-2.2-5.3-7 .2-14.3-7-27-19.3-34.1-12.3-7.1-27-7-39.2.3-4.2 2.5-7.3.4-8.7-1.1-1.5-1.5-3.6-4.6-1.1-8.7 7.3-12.2 7.5-26.9.3-39.2-7.1-12.3-19.9-19.6-34.1-19.3-4.9 0-6.5-3.3-7-5.3s-.8-5.7 3.4-8.1c12.5-6.9 19.9-19.6 19.9-33.8 0-14.3-7.4-26.9-19.9-33.8-4.2-2.4-4-6.1-3.4-8.1.5-2 2.1-5.3 7-5.3 14.2.2 27-7 34.1-19.3 7.1-12.3 7-27-.3-39.2-2.5-4.2-.4-7.3 1.1-8.7 1.5-1.5 4.6-3.6 8.7-1.1 12.2 7.3 26.9 7.4 39.2.3 12.3-7.1 19.6-19.9 19.3-34.1-.1-4.9 3.3-6.5 5.3-7s5.7-.8 8.1 3.4c6.9 12.5 19.6 19.9 33.8 19.9s26.9-7.4 33.8-19.9c2.4-4.2 6.1-4 8.1-3.4 2 .5 5.4 2.2 5.3 7-.2 14.3 7 27 19.3 34.1 12.3 7.1 27 7 39.2-.3 4.2-2.5 7.3-.4 8.7 1.1 1.5 1.5 3.6 4.6 1.1 8.7-7.3 12.2-7.5 26.9-.3 39.2 7.1 12.3 19.8 19.5 34.1 19.3 4.9-.1 6.6 3.1 7.1 5.2zM165.8 160.1l85.5 182.5c-1.3.2-2.5.5-3.8.8-17.4 4.7-29 20-28.7 38 .1 3.7-2.2 5.5-3.6 6.3-1.4.8-4.1 1.8-7.3-.1-15.5-9.3-34.5-7-47.3 5.8-7.1 7.1-10.9 16.1-11.4 25.3L52.9 213l112.9-52.9zm280.1 258.7c-.5-9.2-4.3-18.2-11.4-25.3-12.8-12.8-31.8-15.1-47.3-5.8-3.1 1.9-5.9.8-7.3.1-1.4-.8-3.6-2.6-3.6-6.3.3-18.1-11.2-33.3-28.7-38-1.3-.3-2.5-.6-3.8-.8l85.5-182.5 113 52.8-96.4 205.8z"/></svg></svg>