<svg version="1.0" xmlns="http://www.w3.org/2000/svg" width="1141.333" height="1141.333" viewBox="0 0 856 856"><path d="M351.4 12.8l-3.1.3v52.7c0 29-.3 53.9-.6 55.3-.4 1.5-1.5 2.9-2.4 3.2-1.5.5-28.8 19.4-34.8 24.1-1.7 1.3-6.8 4.9-19.8 13.8-1.1.7-4.5 3.2-7.8 5.5-3.2 2.4-6.1 4.3-6.5 4.3-.3 0-1.1.6-1.8 1.2-1.5 1.5-5.1 4.2-8.8 6.6-3.8 2.5-26.1 18-46.9 32.7-6.3 4.4-13.2 9.3-15.4 10.8-2.2 1.4-9.2 6.3-15.5 10.8-6.3 4.4-12.6 8.8-14 9.7-1.4.9-2.9 2.1-3.5 2.5-.5.5-7.7 5.5-16 11.2-8.2 5.7-15.5 10.8-16 11.2-.6.4-3.3 2.4-6 4.3-2.8 1.9-5.1 3.8-5.3 4.2-.2.4-.8.8-1.2.8-.5 0-5.4 3.3-11 7.2-5.5 4-11 7.7-12 8.3-1.1.5-2 1.3-2 1.7 0 .5-.7.8-1.5.8s-1.5.3-1.5.7c0 .5-1.5 1.7-3.2 2.8-4.2 2.6-6 3.9-16 11-4.5 3.3-8.7 6.2-9.2 6.4-.5.2-1.6 1-2.5 1.7-4 3.3-17.3 12.4-18.1 12.4-.4 0-1 .3-1.2.7-.1.5-3.2 2.8-6.8 5.3-3.6 2.4-6.9 4.8-7.5 5.2-.5.5-2.8 2.1-5 3.6l-4 2.9-.1 46.2c0 31.7.3 46.4 1 46.9 1.8 1.1 386.6.8 386.7-.3.1-.5.2-65.3.3-144l.1-142.9 6.8-5c4.9-3.5 7.3-4.7 8.2-4 6.8 4.8 10.7 7.4 11.5 7.4.4 0 1 .3 1.2.8.3.8 13.9 10.5 37.4 26.7 4.7 3.3 9.2 6.6 10 7.2.7.7 1.7 1.3 2.2 1.3.5 0 1.7.9 2.7 2 1 1.1 2.2 2 2.6 2 .4 0 3.7 2.1 7.2 4.7 3.6 2.7 7.3 5.4 8.3 6.1 1.5 1 13.4 9.3 20.4 14.2.8.6 9.8 6.9 20 14s19 13.3 19.6 13.8c.5.5 3 2.2 5.5 3.8 2.4 1.6 4.9 3.3 5.6 3.9.7.5 1.9 1.6 2.7 2.2.8.7 1.7 1.3 2 1.3.5 0 14.9 10.1 17.9 12.6.9.7 2 1.4 2.3 1.4.2 0 1 .5 1.7 1.1.7.5 9.5 6.8 19.7 13.9 10.2 7.1 19.2 13.4 20 14 .8.6 6 4.2 11.5 8s10.5 7.3 11 7.8c.6.4 3.9 2.8 7.5 5.2 3.6 2.4 6.7 4.6 7 4.9.3.4 2.5 1.9 4.9 3.5 2.5 1.6 5 3.3 5.5 3.8 1 .7 15.7 11.1 19.6 13.8 3.1 2.1 21.6 15 24 16.7 1.3 1 6.5 4.6 11.4 8 5 3.5 8.3 6.3 7.5 6.4-.8 0-54.9.1-120.4.1l-119 .1-.1-24.4-.2-24.5 24.2.1c13.2.1 24.8-.1 25.6-.3 1.3-.3 1.5-4.5 1.5-32v-31.7l-57-.2c-36.3-.1-57.4.2-58.2.9-.8.6-.9 1.7-.3 3.3.5 1.3.7 2.5.5 2.7-.4.4-.6 6.9-.4 13.3 0 2.2 0 4.4-.1 5-.1.9-.1 9.6.1 19 0 2.2 0 4.4-.1 5-.1.5-.2 2.6-.1 4.5v14c-.1 5.8-.1 10.9 0 11.5.2 2.2.3 9.1.1 10 0 .5-.1 4.4 0 8.5 0 4.1.1 9.3 0 11.5-.2 31.7-.1 66.5.3 67.2.3.4 84.6.8 187.4.8h186.8v-93.7l-4.5-3.1c-2.5-1.7-4.9-3.5-5.5-4-.5-.5-6.2-4.4-12.5-8.7-6.3-4.4-11.9-8.3-12.5-8.8-.5-.4-4.6-3.2-9-6.2s-8.6-6-9.3-6.7c-.6-.6-2.1-1.5-3.2-1.8-1.1-.3-2-1-2-1.4 0-.4-2.4-2.3-5.2-4.1-2.9-1.9-5.9-4-6.6-4.7-.7-.7-1.7-1.3-2.2-1.3-.5 0-1.5-.6-2.2-1.3-1.2-1.2-14.7-10.8-18.7-13.2-.9-.6-1.8-1.3-2.1-1.6-.3-.3-2.7-2-5.5-3.9-2.7-1.9-5.2-3.6-5.5-3.9-1.2-1.4-7-5.1-8-5.1-.5 0-1-.3-1-.8 0-.4-2.5-2.3-5.5-4.2-3-1.9-5.5-3.8-5.5-4.3 0-.4-.4-.7-1-.7-.9 0-10.7-6.6-12-8-.3-.3-3-2.2-6-4.2-5-3.3-31-21.5-33.6-23.5-.5-.4-1.7-1.3-2.6-1.8-2.9-1.8-29-20-30.2-21-.6-.6-4-3-7.6-5.5-3.6-2.4-6.6-4.8-6.8-5.2-.2-.4-1-.8-1.8-.8s-1.4-.3-1.4-.8c0-.4-.9-1.2-2-1.7-1.1-.6-11.6-7.7-23.2-16-11.7-8.2-24.2-17-27.8-19.4-3.6-2.5-6.6-4.8-6.8-5.3-.2-.4-.8-.8-1.2-.8-.5 0-4.9-2.9-9.7-6.3-4.8-3.5-10.6-7.6-12.8-9-2.2-1.5-7.8-5.4-12.5-8.7-4.7-3.4-11.9-8.4-16-11.2-4.1-2.8-7.6-5.5-7.8-6-.2-.4-1-.8-1.8-.8s-1.4-.5-1.4-1c0-.6-.7-1-1.5-1s-1.5-.5-1.5-1c0-.6-.7-1-1.5-1s-1.5-.4-1.5-.8c0-.5-1.6-1.7-3.5-2.8-1.9-1-3.5-2.1-3.5-2.4 0-.3-1.5-1.4-3.2-2.5-1.8-1-3.7-2.3-4.3-2.8-.5-.4-6.1-4.4-12.3-8.7-6.3-4.3-12.4-8.7-13.6-9.9-2.7-2.6-4.8-2.7-6.2-.3-.6.9-3.4 3.1-6.1 4.8l-4.9 3.1V45.2c.1-23.4-.2-31.6-1.1-31.9-1.3-.5-55.1-1-59.9-.5zm-3 276.1c0 48.5-.4 88.4-.7 88.8-.8.7-253.7 1.1-253.7.3 0-.3 3.6-3 8-6s10.2-7.1 12.8-9c2.7-1.9 5.9-4.2 7.2-5 1.2-.8 4.2-3 6.6-4.8 2.3-1.7 4.7-3.2 5.3-3.2.5 0 1.1-.4 1.3-.8.2-.4 4.6-3.7 9.8-7.2 5.2-3.6 10.1-7 10.8-7.7.7-.7 2.6-2 4.2-3 1.7-.9 3-2.1 3-2.5 0-.4.6-.8 1.3-.8.7 0 2.8-1.3 4.7-3 1.9-1.6 4-2.9 4.7-3 .6 0 1.3-.3 1.5-.8.2-.4 3.2-2.7 6.8-5.2 3.6-2.4 7.1-5 7.8-5.7.8-.7 2.3-1.8 3.5-2.5 1.2-.6 6.1-4 10.9-7.5 4.8-3.4 9-6.3 9.3-6.3.3 0 1.3-.7 2.2-1.5 1-.8 5.6-4.1 10.3-7.4 4.7-3.3 9-6.5 9.7-7 .7-.6 1.5-1.1 1.8-1.1.3 0 3.8-2.4 7.8-5.3 3.9-2.9 8.3-6 9.7-6.9 4.6-3 39.5-27.6 40.6-28.7.7-.5 1.5-.7 1.8-.4.3.4.6.2.6-.4 0-.5 2.4-2.5 5.3-4.3 2.8-1.9 6.1-4.2 7.1-5.2 1.1-1 2.3-1.8 2.8-1.8.4 0 1.6-.8 2.7-1.8 1-.9 6.5-4.8 12.1-8.7 5.7-3.8 10.9-7.5 11.6-8.2.7-.7 1.6-1.3 1.9-1.3.4 0 1.8-.9 3.2-2 1.4-1.1 2.8-1.8 3.2-1.6.3.2.6 40.1.5 88.5zm98.3 237.7c-.1.1-3.8.4-8.2.8-4.4.3-9.3.8-11 1.1-9.6 1.6-19.6 3.8-23.5 5.2-2.5.8-5.2 1.6-6.1 1.8-.9.2-3.7 1.3-6.2 2.4-2.5 1.2-5.2 2.1-5.9 2.1-.8 0-1.8.4-2.4.9-.5.4-4 2.5-7.9 4.6-3.8 2-8.4 4.8-10.2 6.1-1.7 1.3-3.4 2.4-3.8 2.4-1.1 0-14.9 11.4-20 16.6-7.3 7.5-9.9 10.6-15 17.6-2.5 3.5-4.9 6.7-5.3 7.3-1 1.2-9.9 17.8-9.9 18.5-.1.3-.8 2.3-1.7 4.4-9.5 22.7-12.3 51.7-8.1 83.3 1.1 8.9 5.2 23.2 9.1 31.8 1 2.2 1.8 4.2 1.9 4.5.5 1.8 3.3 7.1 5.7 10.7 1.5 2.3 2.8 4.5 2.8 4.9 0 .8 7.5 11.4 11.7 16.3 7.3 8.8 28.3 27.1 31.2 27.1.6 0 1.1.4 1.1.8 0 .5 1.5 1.6 3.3 2.5 1.7.9 5.1 2.8 7.4 4.1 2.2 1.4 4.4 2.2 4.7 1.9.3-.4.6 0 .6.7s.3 1 .7.7c.3-.4 1.1-.3 1.8.3 4.3 3.5 32.2 11.6 48 13.9 7.1 1 42 .8 48.5-.3 1.9-.3 5.1-.8 7-1.1 15.8-2.5 29-6.6 43.9-13.7 3.6-1.8 6.8-3.4 7.1-3.7.3-.3 3.9-2.9 8-5.6 7.7-5.1 25-21.6 25-23.8 0-1.2-.9-2.1-18.5-18.2-5.4-5-12.2-11.3-15.1-14.1-3-2.8-5.6-4.9-5.9-4.6-.3.3-.5 0-.5-.6 0-2.3-2.4-1.1-7 3.5-2.5 2.7-6.1 5.9-7.9 7.3-1.8 1.4-3.8 3-4.4 3.5-4.9 4.4-19.2 11.5-27.7 13.7-11.3 2.9-12.9 3.1-25.5 3.2-18.5.3-32.1-2.9-47-10.9-4.4-2.4-9.1-5.2-10.4-6.2-4.6-3.5-18-17.4-18.6-19.3-.4-1.1-1-2-1.4-2-1.2 0-8.6-14.8-11.1-22-1.1-3.6-2.7-9.8-3.4-13.8-1.4-7.8-1.6-29.9-.3-32 .5-.6.6-1.6.3-2.1s.1-2.9.8-5.5c.8-2.5 1.2-4.6 1-4.6-.3 0 0-.9.6-2.1.6-1.1 1.3-2.9 1.5-4 1.3-6.9 11.9-24 19.9-32.1 5.6-5.8 19.1-15.8 21.3-15.8.7 0 1.3-.4 1.3-.9 0-.8 7.2-3.9 9.5-4.2.6 0 1.5-.4 2-.9 1.3-1.1 13.4-3.9 20-4.7 6.1-.7 21.6-.7 27 .1 2.2.3 6.3 1.2 9.2 2 2.8.7 5.4 1.1 5.7.8.3-.3.6 0 .6.7s.4 1 .8.7c.5-.3 4.8 1.5 9.8 3.9 12.5 6.2 13.9 7.2 24.9 17.7l7.1 6.7 6.5-6.2c3.7-3.4 12.6-11.8 19.9-18.7 7.3-6.9 13.9-13.1 14.7-13.9 1.2-1.2.3-2.5-6.4-9-10.5-10.3-13.9-13-23.1-18.9-13.1-8.4-32.6-16.7-43.9-18.8-2.1-.4-4.2-.9-4.7-1.2-.5-.3-2.3-.7-4-.8-1.7-.2-4.4-.6-6.1-.8-9-1.3-34.8-2.8-35.8-2zm-418.8 5.8c-.1 0-.2 64.2-.3 142.4-.1 125.7.1 142.5 1.4 143.1 1.2.5 52.2.7 62.5.2 2-.1 2-.8 1.9-57.6V703l3.8-.1h10.3c33.7 0 32.5-.1 33.5 2.5.5 1.4 2.4 4.7 4.2 7.3 1.9 2.6 7.2 10.9 11.8 18.3 4.6 7.4 8.8 13.6 9.2 13.8.4.2.8.7.8 1.2s2.2 4.3 5 8.4c2.8 4.2 5 8 5 8.6 0 .5.5 1 1 1 .6 0 1 .5 1 1 0 .6.5 1.6 1 2.3.6.7 3 4.2 5.3 7.9s9.4 15 15.8 25l11.7 18.3 37.1-.1c20.4 0 37.3-.3 37.5-.5.2-.2-2-4-4.9-8.4-4.5-6.8-39-60-42-64.8-.5-.8-11.7-18-24.8-38.2l-23.8-36.6 6.3-9.2c3.5-5.1 6.6-9.4 7.1-9.5.4-.2.7-.7.7-1.2 0-.7 6.2-10.3 11.4-17.5 2.7-3.8 14.4-21 29.3-43 8.1-12.1 15-22.2 15.3-22.5.9-.7 23-33.8 23-34.4 0-.2-15.5-.4-34.5-.4H216l-5.7 8.7c-3.1 4.7-7.8 11.9-10.5 15.9-2.6 4.1-4.8 7.8-4.8 8.3 0 .5-.4.9-1 .9-.5 0-1.2 1.1-1.6 2.5-.3 1.4-1 2.5-1.5 2.5s-1.6 1.5-2.5 3.2c-.9 1.8-2 3.5-2.3 3.8-.3.3-1.2 1.7-2 3.2-.8 1.5-2.2 3.7-3.3 4.7-1 1.1-1.8 2.3-1.8 2.6 0 .2-5 8-11 17.1-6.1 9.2-11 16.8-11 17 0 .1-2.5 4-5.5 8.6s-6.1 9.1-6.8 10.2c-4.4 6.7-2.2 6.2-27.3 6-12.6-.1-23.2-.2-23.5-.3-.3 0-.5-25.2-.4-55.9 0-30.6-.1-56.4-.3-57.4-.4-1.5-3.4-1.6-32.8-1.6-17.8 0-32.4.1-32.5.2zm555.7.4c-.3.3-.6 12.4-.6 26.8v26.3l45.1-.1c24.7 0 45.3.3 45.7.7.4.4.8 52.3.8 115.3.1 63.1.2 115.1.3 115.7.1 1.1 63.7 1.3 64.8.2.3-.4.6-52.5.6-115.7 0-64.7.4-115.3.9-115.6.4-.3 21-.5 45.6-.5h44.7v-53.4l-123.7-.1c-68-.1-123.9.1-124.2.4z"/></svg>